HIERARCHY
ROOT ui
{
	 OFFSET 0 0 0
	 CHANNELS 3 XPosition YPosition Z Position
	 EndSite
	 {
	 OFFSET 0 -1 0
	 }
}
ROOT li
{
	 OFFSET 0 0 0
	 CHANNELS 3 XPosition YPosition Z Position
	 EndSite
	 {
	 OFFSET 0 -1 0
	 }
}
ROOT ul
{
	 OFFSET 0 0 0
	 CHANNELS 3 XPosition YPosition Z Position
	 EndSite
	 {
	 OFFSET 0 -1 0
	 }
}
ROOT ll
{
	 OFFSET 0 0 0
	 CHANNELS 3 XPosition YPosition Z Position
	 EndSite
	 {
	 OFFSET 0 -1 0
	 }
}
ROOT tt
{
	 OFFSET 0 0 0
	 CHANNELS 3 XPosition YPosition Z Position
	 EndSite
	 {
	 OFFSET 0 -1 0
	 }
}
ROOT tb
{
	 OFFSET 0 0 0
	 CHANNELS 3 XPosition YPosition Z Position
	 EndSite
	 {
	 OFFSET 0 -1 0
	 }
}
ROOT td
{
	 OFFSET 0 0 0
	 CHANNELS 3 XPosition YPosition Z Position
	 EndSite
	 {
	 OFFSET 0 -1 0
	 }
}
ROOT v
{
	 OFFSET 0 0 0
	 CHANNELS 3 XPosition YPosition Z Position
	 EndSite
	 {
	 OFFSET 0 -1 0
	 }
}
ROOT bn
{
	 OFFSET 0 0 0
	 CHANNELS 3 XPosition YPosition Z Position
	 EndSite
	 {
	 OFFSET 0 -1 0
	 }
}
MOTION
Frames: 32
Frame Time: 0.002
-0.006195969104766845	0.0011900110244750977	0		0.4768785400390625	-2.353908447265625	0		-1.0710087890625	0.08337641143798828	0		-0.6393960571289062	-2.485919921875	0		1.6683905029296875	-0.6579072265625	0		3.217675048828125	-0.03281629180908203	0		4.57912744140625	0.17024954223632813	0		5.627259765625	0.12208949279785156	0		-0.27238372802734373	5.88124853515625	0		
0.014424099922180175	-0.0029776320457458494	0		0.509391845703125	-2.368256591796875	0		-1.0723233642578125	0.08353733062744141	0		-0.6667752075195312	-2.493328857421875	0		1.667093505859375	-0.6576813354492187	0		3.207396484375	-0.030408916473388673	0		4.5857939453125	0.16941580200195314	0		5.62925927734375	0.13463568115234376	0		-0.2596766357421875	5.89120166015625	0		
0.016134244918823242	1.6863100230693817E-4	0		0.4592817993164062	-2.357262451171875	0		-1.056778076171875	0.07643194580078125	0		-0.6639854125976562	-2.48921630859375	0		1.6775457763671875	-0.6716353149414063	0		3.222992919921875	-0.03440518569946289	0		4.57932373046875	0.16180909729003906	0		5.63469189453125	0.1297772674560547	0		-0.25919757080078126	5.88935791015625	0		
0.031763694763183595	-0.0019029669761657716	0		0.48803750610351565	-2.35553125	0		-1.055907958984375	0.08957022094726562	0		-0.6971217651367188	-2.48052099609375	0		1.6823553466796874	-0.6634866943359375	0		3.2268818359375	-0.020199514389038085	0		4.58311083984375	0.1700522003173828	0		5.6366748046875	0.14238064575195314	0		-0.3950128784179687	5.870705078125	0		
0.017548973083496094	0.0045103302001953125	0		0.4738572998046875	-2.351104736328125	0		-1.0682056884765625	0.09092135620117188	0		-0.6315331420898438	-2.491408203125	0		1.669047119140625	-0.6640418701171875	0		3.197381103515625	-0.031453184127807614	0		4.58179345703125	0.17038661193847657	0		5.62864404296875	0.14847256469726564	0		-0.2641398315429688	5.89178076171875	0		
0.012213018417358399	7.824239730834961E-4	0		0.4706230163574219	-2.352851318359375	0		-1.0735281982421876	0.08816107940673829	0		-0.6805813598632813	-2.481453125	0		1.66779443359375	-0.6637852172851563	0		3.207028076171875	-0.036326480865478517	0		4.58253173828125	0.1716976318359375	0		5.62552001953125	0.13708938598632814	0		-0.2655871276855469	5.89197998046875	0		
-0.013987799644470215	0.0023887479305267335	0		0.47630068969726563	-2.363739990234375	0		-1.0747508544921875	0.08833422088623047	0		-0.6379522705078124	-2.49596826171875	0		1.666595458984375	-0.6635257568359375	0		3.205809326171875	-0.03601851272583008	0		4.57440283203125	0.178159912109375	0		5.6246533203125	0.13774844360351562	0		-0.2811505126953125	5.8824033203125	0		
0.020690671920776366	-0.007979843139648437	0		0.4513053283691406	-2.35813818359375	0		-1.15190185546875	0.08971293640136718	0		-0.6960186767578125	-2.494877685546875	0		1.671347900390625	-0.6703602294921875	0		3.20398779296875	-0.014693294525146484	0		4.5829990234375	0.16336048889160157	0		5.6302158203125	0.132985595703125	0		-0.26736447143554687	5.89135791015625	0		
0.015859277725219726	0.008281060218811035	0		0.4704600830078125	-2.348242431640625	0		-1.0678909912109376	0.09551815032958984	0		-0.6688599853515625	-2.485150390625	0		1.6733486328125	-0.6661497192382813	0		3.212534912109375	-0.03753546905517578	0		4.57703466796875	0.17180242919921876	0		5.62944482421875	0.13367341613769532	0		-0.2686629333496094	5.891546875	0		
0.01859546661376953	-0.007589160919189453	0		0.47736541748046873	-2.359159423828125	0		-1.0780137939453125	0.08881137084960937	0		-0.6738527221679688	-2.48992138671875	0		1.6634136962890624	-0.6627526245117188	0		3.235619140625	-0.03160298919677734	0		4.5760185546875	0.17216854858398437	0		5.62456298828125	0.15183247375488282	0		-0.26989816284179685	5.89172705078125	0		
-0.008330493927001954	-0.006996849060058594	0		0.4745002136230469	-2.360927734375	0		-1.0789468994140625	0.08894798278808594	0		-0.6417644653320312	-2.495289794921875	0		1.662510986328125	-0.6625048217773437	0		3.20571044921875	-0.029832862854003907	0		4.57508203125	0.17253451538085937	0		5.62168603515625	0.14050563049316406	0		-0.2720507202148438	5.892912109375	0		
-0.01902067184448242	0.00332787299156189	0		0.4648939208984375	-2.35159814453125	0		-1.0798001708984375	0.08907083129882812	0		-0.6883131713867188	-2.48242431640625	0		1.6645157470703125	-0.6733117065429688	0		3.196689697265625	-0.040400836944580076	0		4.5742255859375	0.17289701843261718	0		5.623302734375	0.15322862243652344	0		-0.2721658630371094	5.8920537109375	0		
0.005191755771636963	0.002089984893798828	0		0.48295806884765624	-2.368718505859375	0		-1.0805726318359374	0.08917982482910156	0		-0.6652124633789063	-2.497673828125	0		1.6668389892578126	-0.6691307373046875	0		3.208984130859375	-0.03631038284301758	0		4.56832421875	0.16533216857910157	0		5.62692626953125	0.13645396423339845	0		-0.27122308349609375	5.89016650390625	0		
0.025519086837768556	0.0029035499095916746	0		0.4516628723144531	-2.3500703125	0		-1.0621861572265625	0.09397644805908204	0		-0.6596947631835938	-2.491655029296875	0		1.6692452392578125	-0.6649620361328125	0		3.21659716796875	-0.017154008865356445	0		4.56275732421875	0.17375367736816405	0		5.625205078125	0.1665828552246094	0		-0.40746527099609375	5.87241748046875	0		
0.0039043819904327395	0.0023617379665374755	0		0.491128173828125	-2.352547607421875	0		-1.08186767578125	0.08935617065429688	0		-0.6771536865234375	-2.489289794921875	0		1.665610595703125	-0.6687130126953125	0		3.169736083984375	-0.033162967681884765	0		4.5672568359375	0.18100302124023437	0		5.61963232421875	0.14319627380371094	0		-0.27499627685546874	5.89244482421875	0		
0.014243578910827637	-0.006696226119995118	0		0.47158843994140626	-2.36011669921875	0		-1.0823905029296874	0.08942176818847657	0		-0.6795960083007813	-2.49117529296875	0		1.65616845703125	-0.6653886108398438	0		3.19821484375	-0.0333659553527832	0		4.57162060546875	0.17423567199707032	0		5.61926708984375	0.14380319213867188	0		-0.28992425537109373	5.88276513671875	0		
0.013802620887756347	-0.00660097599029541	0		0.4863076477050781	-2.35623583984375	0		-1.0828355712890625	0.08947053527832032	0		-0.6819625244140625	-2.493078125	0		1.6647076416015625	-0.6683634033203125	0		3.193682373046875	-0.039072795867919924	0		4.56807861328125	0.16857148742675782	0		5.61895654296875	0.14437136840820314	0		-0.27744528198242185	5.89364404296875	0		
-0.02240842819213867	0.004033045768737793	0		0.44502322387695314	-2.35650341796875	0		-1.0832100830078124	0.08950206756591797	0		-0.6781691284179687	-2.4890927734375	0		1.6643643798828125	-0.6682188110351562	0		3.17865625	-0.016635168075561525	0		4.560794921875	0.1749434814453125	0		5.62801220703125	0.15146595764160156	0		-0.2770743103027344	5.89269287109375	0		
0.016169637680053712	-0.0035130250453948974	0		0.4727884216308594	-2.357861572265625	0		-1.0744150390625	0.0963768310546875	0		-0.7004237060546875	-2.491720947265625	0		1.6671434326171874	-0.6641426391601563	0		3.19709814453125	-0.032744590759277346	0		4.57047802734375	0.17502586364746095	0		5.620697265625	0.15739918518066406	0		-0.411924072265625	5.87381591796875	0		
-0.013128016471862793	-0.006024938106536865	0		0.4368105773925781	-2.345250244140625	0		-1.0797347412109375	0.09245401763916015	0		-0.6785424194335937	-2.489047607421875	0		1.663851806640625	-0.6679945068359375	0		3.191953125	-0.025510141372680664	0		4.5602177734375	0.17538931274414063	0		5.62051904296875	0.15782171630859376	0		-0.27808880615234377	5.89276904296875	0		
0.0018002500534057618	0.002764683961868286	0		0.4875537109375	-2.35399755859375	0		-1.083992431640625	0.08950080108642579	0		-0.6915556640625	-2.481849609375	0		1.6636661376953126	-0.6679146728515625	0		3.19663671875	-0.03245356750488281	0		4.57689306640625	0.16830842590332032	0		5.61815673828125	0.14616213989257812	0		-0.27948617553710936	5.893796875	0		
-0.023351089477539062	0.0041553740501403804	0		0.44238784790039065	-2.358283203125	0		-1.0841649169921874	0.08947259521484376	0		-0.6848465576171875	-2.49497119140625	0		1.660456787109375	-0.6718084716796875	0		3.19237646484375	-0.03828275299072265	0		4.5647041015625	0.167645751953125	0		5.620255859375	0.15850697326660157	0		-0.278859619140625	5.89277880859375	0		
0.012355534553527833	-0.006404367923736573	0		0.4703019104003906	-2.359707763671875	0		-1.0633515625	0.08611145782470703	0		-0.715798828125	-2.487524169921875	0		1.6692935791015624	-0.674906005859375	0		3.207102294921875	-0.04742727279663086	0		4.56456396484375	0.16777006530761718	0		5.6243310546875	0.14131253051757814	0		-0.41248776245117186	5.87280615234375	0		
-0.0035944991111755372	0.0038189589977264404	0		0.4763637084960938	-2.352809326171875	0		-1.05941357421875	0.08900165557861328	0		-0.665953369140625	-2.495328369140625	0		1.6722664794921875	-0.6709305419921875	0		3.203381591796875	-0.02230755805969238	0		4.5644541015625	0.16786627197265624	0		5.62718798828125	0.15352406311035155	0		-0.278437744140625	5.8917197265625	0		
0.01217231559753418	-0.006457122802734375	0		0.47226177978515627	-2.35776953125	0		-1.0753848876953125	0.0961895523071289	0		-0.6788828125	-2.489177490234375	0		1.6632501220703124	-0.6677884521484375	0		3.192060302734375	-0.03809861373901367	0		4.56640283203125	0.169904541015625	0		5.61781982421875	0.14710545349121093	0		-0.28061624145507813	5.89371142578125	0		
-0.023725704193115236	0.004049696922302246	0		0.4613591003417969	-2.350635498046875	0		-1.0845477294921875	0.08926548767089844	0		-0.6130516967773437	-2.500239501953125	0		1.657101318359375	-0.6747069702148437	0		3.192005859375	-0.0380809440612793	0		4.56145166015625	0.1770235595703125	0		5.61778271484375	0.14721136474609375	0		-0.29493304443359375	5.88387890625	0		
0.0012206569910049438	0.002617916107177734	0		0.4681901550292969	-2.3617841796875	0		-1.08458447265625	0.08919927215576172	0		-0.719930419921875	-2.49166650390625	0		1.657075927734375	-0.674732177734375	0		3.197863525390625	-0.04517397308349609	0		4.5553076171875	0.1701341552734375	0		5.6212158203125	0.12983747863769532	0		-0.28090542602539065	5.89360986328125	0		
0.012064188957214355	-0.006604718208312988	0		0.47022763061523437	-2.359865966796875	0		-1.0805579833984376	0.09207046508789063	0		-0.68294140625	-2.49329443359375	0		1.660110595703125	-0.671816650390625	0		3.18218359375	-0.0229544677734375	0		4.56425634765625	0.16798959350585937	0		5.62413330078125	0.14184521484375	0		-0.414290771484375	5.87458154296875	0		
0.005260972023010254	0.006440474033355713	0		0.4722695617675781	-2.357953857421875	0		-1.0714398193359376	0.09986585235595703	0		-0.713818603515625	-2.48588671875	0		1.6690655517578126	-0.6750037841796875	0		3.19784423828125	-0.04523710632324219	0		4.56937451171875	0.17587933349609375	0		5.6199619140625	0.15925396728515626	0		-0.4143429870605469	5.87351904296875	0		
0.005271240234375	0.006377909183502197	0		0.4722831115722656	-2.358015869140625	0		-1.075490234375	0.09586323547363282	0		-0.6459347534179688	-2.49498583984375	0		1.66012353515625	-0.6719271850585937	0		3.196052978515625	-0.032266273498535156	0		4.56629345703125	0.16986952209472655	0		5.6199697265625	0.159158935546875	0		-0.2800362854003906	5.8924111328125	0		
-0.013906417846679687	-0.006394837856292725	0		0.43443740844726564	-2.348502685546875	0		-1.0805321044921874	0.09187859344482421	0		-0.6829028930664063	-2.493484130859375	0		1.6570948486328125	-0.674948974609375	0		3.197872802734375	-0.04536686325073242	0		4.56631201171875	0.16979461669921875	0		5.619982421875	0.159025390625	0		-0.2809884338378906	5.89336279296875	0		
0.0012507740259170533	0.002310741901397705	0		0.45938259887695315	-2.352950439453125	0		-1.08455517578125	0.08888106536865234	0		-0.6957862548828125	-2.486347900390625	0		1.6540523681640624	-0.678976318359375	0		3.192001708984375	-0.03835797882080078	0		4.5663349609375	0.16970547485351561	0		5.62123876953125	0.12940303039550782	0		-0.2809351501464844	5.8932998046875	0		
